<svg xmlns="http://www.w3.org/2000/svg" width="165.912" height="165.306" viewBox="0 0 165.912 165.306">
  <g id="Groupe_3" data-name="Groupe 3" transform="translate(-139.065 -326.972)">
    <path id="Tracé_1" data-name="Tracé 1" d="M183.846,343.731l3.466-1.61a.935.935,0,0,0,.73.209,5,5,0,0,0,1.292-.261,14.484,14.484,0,0,0,1.739-.692q.952-.443,1.478-.756a2.1,2.1,0,0,0,.687-.566.5.5,0,0,0,.042-.506q-.111-.242-.542-.2a5.768,5.768,0,0,0-1.393.424q-.963.385-2.665,1.176a18.97,18.97,0,0,1-2.246.9,6.143,6.143,0,0,1-1.688.321,2.228,2.228,0,0,1-1.176-.256,1.8,1.8,0,0,1-.725-.829,2.333,2.333,0,0,1-.086-1.9,4.628,4.628,0,0,1,1.544-1.86,16.4,16.4,0,0,1,3.176-1.854,10.452,10.452,0,0,1,4.854-1.229,2.921,2.921,0,0,1,2.673,1.715l-3.289,1.528q-.258-.39-1.085-.275a8.117,8.117,0,0,0-2.16.733,10.2,10.2,0,0,0-1.89,1.063q-.571.451-.4.819a.384.384,0,0,0,.319.222,1.905,1.905,0,0,0,.7-.1,11.476,11.476,0,0,0,1.282-.48q.812-.346,2.043-.918a18.737,18.737,0,0,1,2.373-.94,6.3,6.3,0,0,1,1.728-.317,2.128,2.128,0,0,1,1.173.281,1.929,1.929,0,0,1,.718.848,2.35,2.35,0,0,1,.122,1.857,4.277,4.277,0,0,1-1.511,1.8,18.249,18.249,0,0,1-3.318,1.9,17.757,17.757,0,0,1-2.28.89,10.411,10.411,0,0,1-1.989.422,5.569,5.569,0,0,1-1.646-.053,3.214,3.214,0,0,1-1.25-.516A2.421,2.421,0,0,1,183.846,343.731Z" fill="#fff"/>
    <path id="Tracé_2" data-name="Tracé 2" d="M206.791,335.006l.188.646a1.949,1.949,0,0,1-.1.732,4.432,4.432,0,0,1-.424.941,4.946,4.946,0,0,1-.779.992,5.707,5.707,0,0,1-1.166.886,5.9,5.9,0,0,1-1.577.619,7.84,7.84,0,0,1-1.745.236,4.343,4.343,0,0,1-1.576-.253,2.974,2.974,0,0,1-1.259-.894,4.143,4.143,0,0,1-.794-1.7l-.777-3.153,3.262-.8.694,2.814a2.275,2.275,0,0,0,.536,1.094,1.358,1.358,0,0,0,.935.368,5.331,5.331,0,0,0,1.438-.189,4.645,4.645,0,0,0,1.43-.6,5.7,5.7,0,0,0,1.067-.876A4.285,4.285,0,0,0,206.791,335.006Zm3.974,2.669-3.262.8-1.642-6.661,3.263-.8Z" fill="#fff"/>
    <path id="Tracé_3" data-name="Tracé 3" d="M214.261,326.972l.238,2.087-3.533.4-.238-2.086Zm-3.028,3.968,3.339-.382.779,6.816-3.338.381Z" fill="#fff"/>
    <path id="Tracé_4" data-name="Tracé 4" d="M223.1,335.844l-1.6-.054,3.618-5.514,3.71.06-5,6.78-3.163-.052-4.551-6.934,3.7.06Z" fill="#fff"/>
    <path id="Tracé_5" data-name="Tracé 5" d="M233.443,338.166a7.837,7.837,0,0,1-2.567-.906,4.238,4.238,0,0,1-1.6-1.553,2.952,2.952,0,0,1-.314-2.05,3.028,3.028,0,0,1,1.032-1.861,4.1,4.1,0,0,1,2.044-.863,8.234,8.234,0,0,1,2.717.086,8.337,8.337,0,0,1,2.775.972,4.283,4.283,0,0,1,1.629,1.594,3.078,3.078,0,0,1-.329,3.384,3.445,3.445,0,0,1-1.281.932,5.5,5.5,0,0,1-1.828.419A9.129,9.129,0,0,1,233.443,338.166Zm1.623-1.866a13.141,13.141,0,0,0,1.945.221,3.912,3.912,0,0,0,1.487-.189,1.05,1.05,0,0,0,.331-1.8,3.836,3.836,0,0,0-1.324-.7,13.937,13.937,0,0,0-1.9-.477,5.3,5.3,0,0,0-2.243-.034,1.2,1.2,0,0,0-.974.967,1.1,1.1,0,0,0,.2.876,2.246,2.246,0,0,0,.914.68A6.757,6.757,0,0,0,235.066,336.3Zm4.745-4.14,3.3.607-1.238,6.747-3.112-.571q.02-.651.08-1.252c.04-.4.11-.867.207-1.4Z" fill="#fff"/>
    <path id="Tracé_6" data-name="Tracé 6" d="M245.171,333.4l3.126,1.231-2.514,6.383-3.126-1.231Zm7.892,2.883a7.161,7.161,0,0,1,1.421.748,3.932,3.932,0,0,1,1.065,1.059,2.97,2.97,0,0,1,.485,1.424,4.088,4.088,0,0,1-.333,1.84l-1.217,3.087-3.126-1.231,1.062-2.7a1.813,1.813,0,0,0,.039-1.588,3.255,3.255,0,0,0-1.675-1.133,6.277,6.277,0,0,0-1.423-.38,8.476,8.476,0,0,0-1.325-.094,4.811,4.811,0,0,0-.988.1l.169-.5a2.224,2.224,0,0,1,.618-.518,4.372,4.372,0,0,1,1.228-.5,5.777,5.777,0,0,1,1.766-.147A7.139,7.139,0,0,1,253.063,336.282Z" fill="#fff"/>
    <path id="Tracé_7" data-name="Tracé 7" d="M261.541,338.331l2.9,1.692-4.513,7.741-2.9-1.693Zm-3.162.587,7.111,4.146-1.057,1.815-7.112-4.147Z" fill="#fff"/>
    <path id="Tracé_8" data-name="Tracé 8" d="M269.455,348.412l4.608,3.873-1.351,1.608L268.1,350.02Z" fill="#fff"/>
    <path id="Tracé_9" data-name="Tracé 9" d="M279.181,361.17l1.95-1.482,4.228,5.561a1.656,1.656,0,0,0,.534.482.709.709,0,0,0,.908-.69,1.766,1.766,0,0,0-.327-.639l-4.093-5.383-4.9,3.728-2.119-2.787,7.133-5.422,5.88,7.734a12.393,12.393,0,0,1,1.073,1.656,4.931,4.931,0,0,1,.553,1.593,2.747,2.747,0,0,1-.195,1.5,3.528,3.528,0,0,1-1.167,1.38,3.218,3.218,0,0,1-1.6.722,2.4,2.4,0,0,1-1.4-.291,5.244,5.244,0,0,1-1.293-1.03,18.631,18.631,0,0,1-1.269-1.507Z" fill="#fff"/>
    <path id="Tracé_10" data-name="Tracé 10" d="M290.627,369.553l1.574,2.969-6.061,3.213-1.574-2.969Zm.977,7.373a7.684,7.684,0,0,0-.929-1.393,7.151,7.151,0,0,0-.955-.951,3.354,3.354,0,0,0-.776-.492l.58-.34a2.654,2.654,0,0,1,.718-.126,4.859,4.859,0,0,1,.959.046,4.337,4.337,0,0,1,1.059.294,3.8,3.8,0,0,1,1.014.627,3.457,3.457,0,0,1,.8,1.024Z" fill="#fff"/>
    <path id="Tracé_11" data-name="Tracé 11" d="M293.734,387.48l1.1,3.114a2.33,2.33,0,0,1-1.6-.286,4.683,4.683,0,0,1-1.538-1.549,13.711,13.711,0,0,1-1.412-3,17.224,17.224,0,0,1-.9-3.55,4.786,4.786,0,0,1,.28-2.6,2.858,2.858,0,0,1,1.755-1.5,2.91,2.91,0,0,1,2.295.04,4.726,4.726,0,0,1,1.868,1.811,16.762,16.762,0,0,1,1.565,3.366,13.289,13.289,0,0,1,.81,3.412,3.65,3.65,0,0,1-.485,2.3,3.572,3.572,0,0,1-1.951,1.345l-3.184-8.971a1.247,1.247,0,0,0-.5.6,2.427,2.427,0,0,0-.126,1.13,7.318,7.318,0,0,0,.442,1.811,9.586,9.586,0,0,0,.821,1.811Q293.391,387.437,293.734,387.48Zm1.453-3.606a6.163,6.163,0,0,0-1.059-2.023q-.564-.624-.914-.649l2.06,5.806a1.244,1.244,0,0,0,.365-.962A5.858,5.858,0,0,0,295.187,383.874Zm2.552-2.94,2.925,1.962,1.5,4.223-3.294-3.006Z" fill="#fff"/>
    <path id="Tracé_12" data-name="Tracé 12" d="M297.6,404.325a2.508,2.508,0,0,1-1.8-.359,4.02,4.02,0,0,1-1.384-1.8,13.469,13.469,0,0,1-.914-3.428,16.639,16.639,0,0,1-.221-3.7,4.641,4.641,0,0,1,.781-2.459,3.268,3.268,0,0,1,4.212-.653,4.647,4.647,0,0,1,1.5,2.1,16.345,16.345,0,0,1,.918,3.591,13.371,13.371,0,0,1,.166,3.53,4.029,4.029,0,0,1-.777,2.118,2.549,2.549,0,0,1-1.589.9l-.472-3.043A1.637,1.637,0,0,0,298.7,400a5.8,5.8,0,0,0-.016-2.066,9.4,9.4,0,0,0-.418-1.734,2.527,2.527,0,0,0-.67-1.079,1.361,1.361,0,0,0-1.924.291,2.435,2.435,0,0,0-.306,1.224,9.959,9.959,0,0,0,.136,1.792,5.874,5.874,0,0,0,.612,1.981,1.624,1.624,0,0,0,1.007.87Z" fill="#fff"/>
    <path id="Tracé_13" data-name="Tracé 13" d="M296.856,415l-.1,3.3a2.334,2.334,0,0,1-1.389-.847,4.676,4.676,0,0,1-.872-2,13.673,13.673,0,0,1-.231-3.3,17.257,17.257,0,0,1,.444-3.635,4.8,4.8,0,0,1,1.2-2.325,2.857,2.857,0,0,1,2.18-.761,2.9,2.9,0,0,1,2.124.868,4.7,4.7,0,0,1,1.086,2.364,16.785,16.785,0,0,1,.24,3.705,13.335,13.335,0,0,1-.482,3.473,3.635,3.635,0,0,1-1.284,1.965,3.578,3.578,0,0,1-2.306.548l.282-9.516a1.235,1.235,0,0,0-.683.379,2.426,2.426,0,0,0-.527,1.007,7.285,7.285,0,0,0-.244,1.848,9.66,9.66,0,0,0,.109,1.985C296.5,414.579,296.654,414.893,296.856,415Zm2.662-2.834a6.172,6.172,0,0,0-.255-2.27,1.679,1.679,0,0,0-.617-.936l-.183,6.158q.367-.087.688-.764A5.871,5.871,0,0,0,299.518,412.168Zm3.443-1.817,2.016,2.889-.133,4.478-1.983-3.994Z" fill="#fff"/>
    <path id="Tracé_14" data-name="Tracé 14" d="M301.395,431.12l-.749,3.276-9.417-2.156.706-3.084c.217.012.565.048,1.045.111s1.009.159,1.592.292Zm-8.452-7.248a7.845,7.845,0,0,1,1.015-2.525,4.245,4.245,0,0,1,1.622-1.532,2.95,2.95,0,0,1,2.062-.225,3.034,3.034,0,0,1,1.813,1.112,4.071,4.071,0,0,1,.774,2.079,8.213,8.213,0,0,1-.2,2.711,9.116,9.116,0,0,1-.757,2.154,5.51,5.51,0,0,1-1.108,1.513,3.425,3.425,0,0,1-1.369.807,2.98,2.98,0,0,1-1.531.037,2.943,2.943,0,0,1-1.356-.7,3.437,3.437,0,0,1-.875-1.322,5.486,5.486,0,0,1-.34-1.843A9.121,9.121,0,0,1,292.943,423.872Zm1.793,1.7a13.32,13.32,0,0,0-.306,1.934,3.923,3.923,0,0,0,.125,1.493,1.009,1.009,0,0,0,.767.728,1.02,1.02,0,0,0,1.021-.319,3.854,3.854,0,0,0,.755-1.292,13.928,13.928,0,0,0,.559-1.876,5.314,5.314,0,0,0,.132-2.239,1.2,1.2,0,0,0-.924-1.016,1.1,1.1,0,0,0-.884.158,2.227,2.227,0,0,0-.719.883A6.814,6.814,0,0,0,294.736,425.575Z" fill="#fff"/>
    <path id="Tracé_15" data-name="Tracé 15" d="M289.156,443.137l-1.353,3.014a2.329,2.329,0,0,1-.96-1.313,4.684,4.684,0,0,1-.041-2.183,13.666,13.666,0,0,1,1.05-3.142,17.235,17.235,0,0,1,1.8-3.19,4.794,4.794,0,0,1,2-1.687,2.861,2.861,0,0,1,2.306.129,2.9,2.9,0,0,1,1.63,1.615,4.7,4.7,0,0,1,.1,2.6,16.7,16.7,0,0,1-1.194,3.515,13.357,13.357,0,0,1-1.772,3.026,3.651,3.651,0,0,1-1.938,1.325,3.573,3.573,0,0,1-2.34-.376l3.9-8.685a1.243,1.243,0,0,0-.777.089,2.411,2.411,0,0,0-.872.729,7.339,7.339,0,0,0-.932,1.615,9.646,9.646,0,0,0-.658,1.876Q288.938,442.87,289.156,443.137Zm3.543-1.6a6.173,6.173,0,0,0,.632-2.194,1.68,1.68,0,0,0-.212-1.1l-2.523,5.62a1.247,1.247,0,0,0,.928-.443A5.872,5.872,0,0,0,292.7,441.535Z" fill="#fff"/>
    <path id="Tracé_16" data-name="Tracé 16" d="M286.182,456.716a7.213,7.213,0,0,1-1.056,1.21,3.942,3.942,0,0,1-1.276.791,2.962,2.962,0,0,1-1.5.142,4.082,4.082,0,0,1-1.713-.749l-2.723-1.9,1.92-2.758,2.378,1.657a1.817,1.817,0,0,0,1.536.4,3.244,3.244,0,0,0,1.49-1.368,6.286,6.286,0,0,0,.7-1.3,8.309,8.309,0,0,0,.4-1.268,4.747,4.747,0,0,0,.131-.983l.452.281a2.19,2.19,0,0,1,.361.72,4.349,4.349,0,0,1,.2,1.31,5.79,5.79,0,0,1-.265,1.752A7.143,7.143,0,0,1,286.182,456.716Zm4.629-7.013-1.92,2.758-5.63-3.921,1.921-2.758Z" fill="#fff"/>
    <path id="Tracé_17" data-name="Tracé 17" d="M282.263,464.461,279.95,466.9l-6.5-6.168,2.313-2.437Zm.154-3.213-5.667,5.971-1.523-1.446,5.667-5.971Z" fill="#fff"/>
    <path id="Tracé_18" data-name="Tracé 18" d="M270.622,469.869l-4.827,3.6-1.254-1.684,4.826-3.6Z" fill="#fff"/>
    <path id="Tracé_19" data-name="Tracé 19" d="M259.744,475.719l-3.476,1.588a.929.929,0,0,0-.729-.214,5.018,5.018,0,0,0-1.293.252,14.679,14.679,0,0,0-1.744.68q-.955.437-1.482.747a2.082,2.082,0,0,0-.691.562.5.5,0,0,0-.046.506c.074.161.254.229.541.207a5.761,5.761,0,0,0,1.4-.415q.966-.379,2.672-1.158a18.815,18.815,0,0,1,2.252-.883,6.177,6.177,0,0,1,1.69-.31,2.212,2.212,0,0,1,1.175.264,1.8,1.8,0,0,1,.719.833,2.333,2.333,0,0,1,.074,1.9,4.632,4.632,0,0,1-1.556,1.85,16.407,16.407,0,0,1-3.188,1.833,10.441,10.441,0,0,1-4.863,1.2,2.92,2.92,0,0,1-2.661-1.732l3.3-1.506c.17.261.531.354,1.083.282a8.094,8.094,0,0,0,2.165-.72,10.176,10.176,0,0,0,1.9-1.05c.381-.3.517-.571.4-.817a.381.381,0,0,0-.318-.223,1.856,1.856,0,0,0-.7.1,11.622,11.622,0,0,0-1.285.471q-.814.342-2.049.9a18.7,18.7,0,0,1-2.379.925,6.321,6.321,0,0,1-1.731.306,2.123,2.123,0,0,1-1.17-.289,1.935,1.935,0,0,1-.713-.852,2.353,2.353,0,0,1-.11-1.858,4.271,4.271,0,0,1,1.523-1.788,18.2,18.2,0,0,1,3.33-1.875,17.723,17.723,0,0,1,2.286-.875,10.448,10.448,0,0,1,1.991-.41,5.573,5.573,0,0,1,1.646.065,3.23,3.23,0,0,1,1.247.523A2.435,2.435,0,0,1,259.744,475.719Z" fill="#fff"/>
    <path id="Tracé_20" data-name="Tracé 20" d="M232.8,481.6l3.267-.784,1.6,6.67-3.267.785Zm3.957,2.693-.184-.647a1.957,1.957,0,0,1,.106-.731,4.389,4.389,0,0,1,.43-.938,4.969,4.969,0,0,1,.785-.988,5.748,5.748,0,0,1,1.171-.878,5.953,5.953,0,0,1,1.582-.61,7.815,7.815,0,0,1,1.745-.225,4.338,4.338,0,0,1,1.576.264,2.975,2.975,0,0,1,1.253.9,4.141,4.141,0,0,1,.783,1.706l.758,3.158-3.268.784-.676-2.818a2.272,2.272,0,0,0-.53-1.1,1.348,1.348,0,0,0-.931-.374,5.326,5.326,0,0,0-1.44.18,4.651,4.651,0,0,0-1.434.6,5.683,5.683,0,0,0-1.072.869A4.333,4.333,0,0,0,236.762,484.29Z" fill="#fff"/>
    <path id="Tracé_21" data-name="Tracé 21" d="M232.285,488.329l-3.341.361-.736-6.82,3.341-.361Zm-3.052,3.949-.225-2.088,3.535-.381.226,2.087Z" fill="#fff"/>
    <path id="Tracé_22" data-name="Tracé 22" d="M220.512,483.357l1.6.054-3.618,5.514-3.709-.06,5-6.78,3.164.051,4.55,6.935-3.7-.06Z" fill="#fff"/>
    <path id="Tracé_23" data-name="Tracé 23" d="M203.753,486.938l-3.3-.625,1.277-6.74,3.109.589q-.024.651-.088,1.252t-.215,1.4Zm6.4-5.967a7.852,7.852,0,0,1,2.562.921,4.23,4.23,0,0,1,1.592,1.562,2.957,2.957,0,0,1,.3,2.052,3.034,3.034,0,0,1-1.043,1.854,4.092,4.092,0,0,1-2.049.852,8.238,8.238,0,0,1-2.717-.1,8.381,8.381,0,0,1-2.769-.988,4.289,4.289,0,0,1-1.62-1.6,3.079,3.079,0,0,1,.349-3.382,3.443,3.443,0,0,1,1.287-.925,5.49,5.49,0,0,1,1.83-.408A9.119,9.119,0,0,1,210.156,480.971Zm-1.634,1.856a13.234,13.234,0,0,0-1.943-.233,3.912,3.912,0,0,0-1.488.181,1.008,1.008,0,0,0-.7.793,1.019,1.019,0,0,0,.357,1.009,3.857,3.857,0,0,0,1.32.706,13.9,13.9,0,0,0,1.9.488,5.3,5.3,0,0,0,2.243.047,1.2,1.2,0,0,0,.98-.962,1.1,1.1,0,0,0-.19-.876,2.234,2.234,0,0,0-.911-.685A6.781,6.781,0,0,0,208.522,482.827Z" fill="#fff"/>
    <path id="Tracé_24" data-name="Tracé 24" d="M190.506,482.73a7.249,7.249,0,0,1-1.416-.755,3.974,3.974,0,0,1-1.059-1.066,3,3,0,0,1-.476-1.428,4.1,4.1,0,0,1,.345-1.837l1.235-3.081,3.118,1.251-1.078,2.69a1.812,1.812,0,0,0-.048,1.587,3.246,3.246,0,0,0,1.668,1.144,6.262,6.262,0,0,0,1.42.389,8.523,8.523,0,0,0,1.325.1,4.8,4.8,0,0,0,.988-.094l-.172.5a2.2,2.2,0,0,1-.621.513,4.34,4.34,0,0,1-1.231.495,5.843,5.843,0,0,1-1.767.135A7.109,7.109,0,0,1,190.506,482.73Zm7.875,2.932-3.119-1.251,2.553-6.367,3.119,1.251Z" fill="#fff"/>
    <path id="Tracé_25" data-name="Tracé 25" d="M185.211,480.064l-7.086-4.189,1.069-1.808,7.086,4.19Zm-3.166.569-2.892-1.71,4.56-7.713,2.892,1.71Z" fill="#fff"/>
    <path id="Tracé_26" data-name="Tracé 26" d="M174.173,470.488l-4.584-3.9,1.361-1.6,4.584,3.9Z" fill="#fff"/>
    <path id="Tracé_27" data-name="Tracé 27" d="M164.527,457.667l-1.96,1.471-4.192-5.589a1.678,1.678,0,0,0-.531-.486.559.559,0,0,0-.625.111q-.358.27-.287.574a1.761,1.761,0,0,0,.323.642l4.058,5.408,4.928-3.7,2.1,2.8-7.168,5.377-5.83-7.772a12.488,12.488,0,0,1-1.063-1.661,4.92,4.92,0,0,1-.542-1.6,2.756,2.756,0,0,1,.2-1.5,3.534,3.534,0,0,1,1.176-1.372,3.207,3.207,0,0,1,1.6-.711,2.4,2.4,0,0,1,1.4.3A5.27,5.27,0,0,1,159.4,451a18.593,18.593,0,0,1,1.259,1.515Z" fill="#fff"/>
    <path id="Tracé_28" data-name="Tracé 28" d="M152.215,441.855a7.731,7.731,0,0,0,.92,1.4,7.286,7.286,0,0,0,.95.957,3.33,3.33,0,0,0,.773.5l-.583.336a2.579,2.579,0,0,1-.717.122,4.736,4.736,0,0,1-.959-.052,4.288,4.288,0,0,1-1.058-.3,3.8,3.8,0,0,1-1.01-.632,3.474,3.474,0,0,1-.8-1.029Zm.932,7.379-1.555-2.977,6.08-3.177,1.556,2.979Z" fill="#fff"/>
    <path id="Tracé_29" data-name="Tracé 29" d="M146.1,437.807l-2.914-1.982-1.471-4.231,3.276,3.026Zm4.045-6.522-1.086-3.121a2.334,2.334,0,0,1,1.6.3,4.687,4.687,0,0,1,1.527,1.559,13.68,13.68,0,0,1,1.394,3,17.23,17.23,0,0,1,.881,3.555,4.788,4.788,0,0,1-.3,2.6,2.853,2.853,0,0,1-1.764,1.488,2.9,2.9,0,0,1-2.295-.054,4.7,4.7,0,0,1-1.856-1.822,16.779,16.779,0,0,1-1.546-3.376A13.378,13.378,0,0,1,145.92,432a3.649,3.649,0,0,1,.5-2.294,3.582,3.582,0,0,1,1.96-1.334l3.128,8.992a1.246,1.246,0,0,0,.5-.6,2.425,2.425,0,0,0,.133-1.129,7.308,7.308,0,0,0-.431-1.815,9.57,9.57,0,0,0-.809-1.815C150.627,431.556,150.376,431.314,150.148,431.285Zm-1.476,3.6a6.159,6.159,0,0,0,1.047,2.029c.373.419.677.637.909.654l-2.024-5.817a1.245,1.245,0,0,0-.37.959A5.879,5.879,0,0,0,148.672,434.882Z" fill="#fff"/>
    <path id="Tracé_30" data-name="Tracé 30" d="M146.391,414.435a2.51,2.51,0,0,1,1.8.368,4.033,4.033,0,0,1,1.373,1.8,13.539,13.539,0,0,1,.9,3.434,16.664,16.664,0,0,1,.2,3.7,4.641,4.641,0,0,1-.794,2.454,3.265,3.265,0,0,1-4.216.629,4.648,4.648,0,0,1-1.491-2.113,16.382,16.382,0,0,1-.9-3.6,13.372,13.372,0,0,1-.145-3.531,4.022,4.022,0,0,1,.789-2.113,2.545,2.545,0,0,1,1.6-.889l.454,3.046a1.632,1.632,0,0,0-.689,1.121,5.811,5.811,0,0,0,0,2.067,9.426,9.426,0,0,0,.407,1.737,2.551,2.551,0,0,0,.664,1.083,1.219,1.219,0,0,0,1.031.263,1.2,1.2,0,0,0,.9-.544,2.43,2.43,0,0,0,.314-1.221,10.15,10.15,0,0,0-.126-1.793,5.854,5.854,0,0,0-.6-1.985,1.63,1.63,0,0,0-1-.877Z" fill="#fff"/>
    <path id="Tracé_31" data-name="Tracé 31" d="M141.062,408.334l-2-2.9.162-4.477,1.957,4.007Zm6.134-4.612.119-3.3a2.338,2.338,0,0,1,1.384.855,4.689,4.689,0,0,1,.859,2.007,13.76,13.76,0,0,1,.211,3.306,17.229,17.229,0,0,1-.468,3.633,4.8,4.8,0,0,1-1.218,2.317,2.855,2.855,0,0,1-2.184.747,2.9,2.9,0,0,1-2.119-.882,4.7,4.7,0,0,1-1.07-2.371,16.755,16.755,0,0,1-.217-3.706,13.291,13.291,0,0,1,.5-3.47,3.642,3.642,0,0,1,1.3-1.957,3.585,3.585,0,0,1,2.311-.533l-.343,9.514a1.242,1.242,0,0,0,.685-.375,2.413,2.413,0,0,0,.534-1,7.287,7.287,0,0,0,.256-1.847,9.647,9.647,0,0,0-.1-1.986Q147.5,403.886,147.2,403.722Zm-2.679,2.817a6.168,6.168,0,0,0,.24,2.271,1.678,1.678,0,0,0,.611.94l.221-6.156q-.366.084-.693.76A5.88,5.88,0,0,0,144.517,406.539Z" fill="#fff"/>
    <path id="Tracé_32" data-name="Tracé 32" d="M142.756,387.591l.77-3.27,9.4,2.213-.725,3.08c-.218-.013-.565-.052-1.044-.116s-1.009-.166-1.59-.3Zm8.407,7.3a7.842,7.842,0,0,1-1.032,2.518,4.228,4.228,0,0,1-1.631,1.522,2.953,2.953,0,0,1-2.063.212,3.039,3.039,0,0,1-1.807-1.123,4.09,4.09,0,0,1-.76-2.084,8.212,8.212,0,0,1,.22-2.71,9.135,9.135,0,0,1,.772-2.148,5.48,5.48,0,0,1,1.117-1.507,3.422,3.422,0,0,1,1.375-.8,2.967,2.967,0,0,1,1.53-.028,2.917,2.917,0,0,1,1.351.707,3.442,3.442,0,0,1,.868,1.325,5.5,5.5,0,0,1,.328,1.847A9.161,9.161,0,0,1,151.163,394.892Zm-1.783-1.714a13.14,13.14,0,0,0,.318-1.932,3.928,3.928,0,0,0-.115-1.494,1.007,1.007,0,0,0-.763-.733,1.019,1.019,0,0,0-1.023.313,3.837,3.837,0,0,0-.763,1.287,13.864,13.864,0,0,0-.57,1.872,5.3,5.3,0,0,0-.146,2.238,1.2,1.2,0,0,0,.918,1.021,1.094,1.094,0,0,0,.884-.151,2.235,2.235,0,0,0,.725-.879A6.8,6.8,0,0,0,149.38,393.178Z" fill="#fff"/>
    <path id="Tracé_33" data-name="Tracé 33" d="M155.065,375.66l1.372-3.006a2.333,2.333,0,0,1,.952,1.319,4.69,4.69,0,0,1,.028,2.182,13.782,13.782,0,0,1-1.069,3.137,17.25,17.25,0,0,1-1.82,3.178,4.809,4.809,0,0,1-2.011,1.676,2.858,2.858,0,0,1-2.3-.144,2.9,2.9,0,0,1-1.621-1.625,4.7,4.7,0,0,1-.083-2.6,16.754,16.754,0,0,1,1.216-3.507,13.281,13.281,0,0,1,1.79-3.015,3.646,3.646,0,0,1,1.946-1.313,3.575,3.575,0,0,1,2.338.39l-3.952,8.661a1.251,1.251,0,0,0,.778-.084,2.43,2.43,0,0,0,.875-.723,7.285,7.285,0,0,0,.942-1.61,9.568,9.568,0,0,0,.67-1.872C155.225,376.187,155.209,375.838,155.065,375.66Zm-3.552,1.58a6.153,6.153,0,0,0-.645,2.19,1.669,1.669,0,0,0,.205,1.1l2.557-5.6a1.241,1.241,0,0,0-.931.437A5.891,5.891,0,0,0,151.513,377.24Z" fill="#fff"/>
    <path id="Tracé_34" data-name="Tracé 34" d="M153.448,369.088l1.937-2.745,5.606,3.954-1.937,2.746Zm4.671-6.984a7.173,7.173,0,0,1,1.063-1.2,3.952,3.952,0,0,1,1.281-.784,2.99,2.99,0,0,1,1.5-.133,4.075,4.075,0,0,1,1.708.76l2.712,1.913-1.937,2.745-2.368-1.671a1.815,1.815,0,0,0-1.534-.413,3.257,3.257,0,0,0-1.5,1.359,6.394,6.394,0,0,0-.706,1.292,8.472,8.472,0,0,0-.4,1.265,4.8,4.8,0,0,0-.137.983l-.45-.283a2.166,2.166,0,0,1-.356-.723,4.323,4.323,0,0,1-.2-1.312,5.788,5.788,0,0,1,.276-1.75A7.147,7.147,0,0,1,158.119,362.1Z" fill="#fff"/>
    <path id="Tracé_35" data-name="Tracé 35" d="M161.929,357.571l5.7-5.934,1.514,1.455-5.705,5.935Zm.174-3.211,2.329-2.422,6.459,6.209-2.329,2.422Z" fill="#fff"/>
    <path id="Tracé_36" data-name="Tracé 36" d="M173.779,349.027l4.849-3.568,1.245,1.692-4.85,3.567Z" fill="#fff"/>
  </g>
</svg>
