<svg xmlns="http://www.w3.org/2000/svg" width="36.506" height="36.522" viewBox="0 0 36.506 36.522">
  <g id="Capa_2" data-name="Capa 2" transform="translate(35.871 -0.006)">
    <g id="Capa_1" data-name="Capa 1" transform="translate(0 0.006)">
      <path id="Tracé_75" data-name="Tracé 75" d="M19.22,36.528H17.375s0-.04-.035-.04h-.42l-.42-.04-.5-.04h0c-.06-.08-.15,0-.225-.04l-.22-.04a1.32,1.32,0,0,1-.38-.05c-.1-.04-.2,0-.295-.065s-.215,0-.3-.055-.17,0-.255-.055a1.28,1.28,0,0,0-.385-.1,1.6,1.6,0,0,1-.3-.075c-.145-.045-.29-.075-.435-.125a3,3,0,0,1-.32-.09c-.105-.05-.215-.06-.32-.1-.3-.115-.6-.215-.9-.33s-.73-.31-1.09-.465l-.285-.14c-.23-.12-.465-.235-.695-.36s-.425-.235-.63-.36c-.3-.18-.6-.365-.89-.56-.2-.135-.39-.285-.59-.42s-.34-.25-.5-.38c-.09-.075-.17-.165-.265-.23a9.1,9.1,0,0,1-.785-.67,2.155,2.155,0,0,1-.185-.185c-.04-.04-.08-.11-.13-.12s-.06-.09-.105-.12a1.315,1.315,0,0,1-.225-.18c-.075-.075-.13-.16-.2-.24a6.33,6.33,0,0,1-.5-.535A5.025,5.025,0,0,0,4.2,29.9l-.04-.04c-.15-.23-.34-.435-.5-.66s-.32-.44-.5-.665a9.769,9.769,0,0,1-.575-.9c-.185-.305-.3-.5-.435-.765-.2-.4-.4-.795-.595-1.195-.125-.27-.24-.545-.34-.82s-.165-.43-.24-.645S.88,23.913.83,23.763s-.08-.245-.115-.37c-.07-.23-.12-.47-.2-.7a1.571,1.571,0,0,1-.015-.26.381.381,0,0,0-.075-.27,3.135,3.135,0,0,0-.145-.61,1.39,1.39,0,0,0-.04-.245c-.015-.08-.03-.16-.04-.245a1.445,1.445,0,0,0-.035-.245.921.921,0,0,0-.04-.325c-.04-.11,0-.215-.04-.32-.03-.26-.03-.525-.045-.785a.96.96,0,0,0,0-.12s0-.025-.04-.035V17.388c.055,0,.04-.04.04-.07,0-.31.035-.62.04-.925v-.06a.7.7,0,0,1,.04-.245,1.07,1.07,0,0,0,.035-.245c0-.145.075-.28.045-.425.06-.075,0-.17.045-.245a3.45,3.45,0,0,0,.11-.5c.03-.17.06-.34.1-.5.065-.3.155-.585.235-.88.055-.2.12-.4.185-.6.095-.31.21-.61.325-.91.16-.415.325-.83.5-1.23a1.64,1.64,0,0,0,.12-.27A1.3,1.3,0,0,1,2,9.913c.12-.185.2-.385.315-.575.165-.28.325-.56.5-.83A1.845,1.845,0,0,1,3,8.248c.18-.195.275-.45.465-.63A7.7,7.7,0,0,1,4.15,6.7a5.415,5.415,0,0,1,.44-.5c.15-.15.34-.385.5-.565a8.385,8.385,0,0,1,.745-.715c.16-.125.29-.285.45-.41s.395-.34.595-.5a2.535,2.535,0,0,1,.225-.18c.315-.215.61-.45.93-.66a8.307,8.307,0,0,1,.83-.5l.5-.29c.2-.125.415-.23.62-.345a9.74,9.74,0,0,1,.925-.43c.25-.1.5-.225.755-.31.165-.055.32-.13.5-.19a7.865,7.865,0,0,1,.76-.235.841.841,0,0,0,.23-.08c.08-.025.145,0,.18-.045s.14,0,.2-.06.115,0,.18-.05A.575.575,0,0,1,14,.5c.17,0,.32-.105.5-.085.06-.085.16,0,.22-.06s.16,0,.235-.055.15-.03.225-.04L15.7.178c.16-.03.325-.03.5-.045h.06A.35.35,0,0,1,16.5.1a2.255,2.255,0,0,0,.265-.04A4.526,4.526,0,0,0,17.45.023a6.28,6.28,0,0,1,.92,0,3.955,3.955,0,0,1,.925.03q.353,0,.7.04a2.61,2.61,0,0,0,.5.04h0c.055.075.135.03.2.04l.22.04a.63.63,0,0,1,.23.035,1.145,1.145,0,0,0,.24.04l.245.05.225.04a.64.64,0,0,1,.24.045,1.085,1.085,0,0,0,.275.06c.21.06.42.105.63.17s.27.065.4.1l.41.13c.3.095.6.2.9.325s.465.175.69.27.555.25.825.385.53.25.78.395l.9.545c.35.21.675.455,1,.68a9.13,9.13,0,0,1,.9.695c.195.16.385.325.575.5s.465.43.695.65c.055.055.085.155.145.17s.1.125.165.18c.165.16.32.33.475.5.23.26.44.53.665.79.145.175.275.355.4.535l.36.5c.14.195.27.39.4.6s.25.39.365.59.29.535.43.8.29.535.4.815c.055.14.12.285.175.43s.12.285.17.43c.1.27.21.54.305.815s.155.55.24.825a4.714,4.714,0,0,0,.16.5c0,.23.13.44.12.67.08.06,0,.16.055.22s0,.16.06.24,0,.145.04.22c.03.175.05.35.085.525a3.965,3.965,0,0,1,.04.5s0,.045,0,.06a.375.375,0,0,1,.035.265,2.254,2.254,0,0,0,.04.265,4.493,4.493,0,0,0,.035.685,6,6,0,0,1,0,.9,4.41,4.41,0,0,1,.045.9,3.2,3.2,0,0,0,0,.38c0,.12-.04.245-.035.365a4.21,4.21,0,0,0-.045.5h0c-.075.065,0,.15-.035.225a1.625,1.625,0,0,0-.04.225,1.087,1.087,0,0,1-.045.38c-.045.12-.08.385-.125.575a1.851,1.851,0,0,1-.04.24c-.045.145-.075.29-.115.435s-.075.29-.115.435-.065.265-.1.4-.085.275-.13.41-.11.34-.17.5c-.1.265-.185.54-.3.8s-.26.625-.42.93a2.3,2.3,0,0,0-.28.575c-.195.27-.315.58-.5.855-.1.165-.19.34-.3.5-.215.31-.415.635-.645.94s-.34.47-.5.7-.4.5-.61.735-.37.41-.565.6a6.38,6.38,0,0,1-.7.67c-.155.12-.275.28-.435.4s-.315.25-.465.385-.5.365-.715.55a11.39,11.39,0,0,1-1.06.71,6.075,6.075,0,0,1-.575.35c-.13.07-.265.14-.39.215s-.4.225-.61.33c-.405.2-.81.39-1.225.575a5.35,5.35,0,0,1-.535.205c-.3.1-.59.225-.895.31-.17.045-.325.125-.5.165s-.34.1-.5.125a4.549,4.549,0,0,1-.775.165c-.055.08-.155,0-.215.055s-.16,0-.24.055-.145,0-.22.045c-.185.04-.38.035-.57.08h-.21a.335.335,0,0,1-.195,0,1.35,1.35,0,0,0-.2.04c-.26,0-.5.03-.785.045a.96.96,0,0,0-.12,0A.4.4,0,0,1,19.22,36.528ZM1.445,19V19.4c0,.125.03.245.04.365a2.879,2.879,0,0,0,.04.585.11.11,0,0,0,0,.04,2.415,2.415,0,0,1,.075.43,2.085,2.085,0,0,0,.045.36c.06.165.06.335.11.5s.06.325.095.5.085.26.11.4a5.96,5.96,0,0,0,.19.665c.085.285.19.56.285.84.145.405.315.8.5,1.185a5.055,5.055,0,0,1,.225.5,3.235,3.235,0,0,0,.18.345c.2.365.4.735.63,1.085.185.275.365.56.555.83s.4.56.63.825a1.74,1.74,0,0,1,.19.24.5.5,0,0,0,.15.17,8.945,8.945,0,0,1,.85-.5,12.64,12.64,0,0,1,1.155-.61,2.925,2.925,0,0,0,.575-.245c.345-.085.67-.225,1-.325l.9-.26a5.82,5.82,0,0,1-.17-.575c-.04-.17-.075-.34-.125-.5a3.86,3.86,0,0,0-.1-.375,2.155,2.155,0,0,1-.075-.415c0-.05-.035-.095-.04-.145a.855.855,0,0,0,0-.16c-.08-.22-.085-.455-.155-.675a1.35,1.35,0,0,1-.04-.285,2.5,2.5,0,0,0-.05-.28A2.7,2.7,0,0,0,9.18,23.6c-.07-.2-.055-.415-.11-.615-.03-.1,0-.215-.04-.325s0-.215-.04-.325,0-.255-.04-.385a3.135,3.135,0,0,1-.04-.385c-.03-.165,0-.335-.04-.5a2.84,2.84,0,0,0-.05-.58c.035-.43-.055-.86-.04-1.29V19Zm26.28,0v.5c0,.175-.045.31-.045.465a3.915,3.915,0,0,1-.035.725c-.035.185,0,.375-.04.565a5.973,5.973,0,0,0-.045.7V22c0,.005-.025.165-.04.245a1.287,1.287,0,0,0-.02.255,2.09,2.09,0,0,1-.04.5h0a1.263,1.263,0,0,0-.04.185c-.005.065-.03.135-.04.2a2.64,2.64,0,0,1-.045.405c-.055.195-.07.4-.11.595s-.065.335-.095.5-.065.33-.1.5-.065.325-.1.5-.1.365-.14.545c-.07.3-.16.6-.245.895a.66.66,0,0,0,.155.06,6.667,6.667,0,0,1,.675.17c.395.16.81.265,1.2.425s.79.325,1.175.5a5.559,5.559,0,0,1,.545.275,7.27,7.27,0,0,1,.745.5l.135-.135c.19-.245.38-.5.565-.73s.25-.35.375-.525.34-.5.5-.755a5.242,5.242,0,0,0,.285-.5c.14-.26.285-.5.415-.79.18-.375.36-.745.5-1.125.115-.275.21-.555.315-.835s.19-.56.28-.845a4.185,4.185,0,0,0,.115-.41,2.6,2.6,0,0,0,.14-.6,4.93,4.93,0,0,0,.195-.845c.04-.17.045-.35.085-.5v-.235a.4.4,0,0,0,.03-.25c0-.085.045-.145.045-.225a2.545,2.545,0,0,1,.03-.385,3.12,3.12,0,0,0,0-.53Zm7.345-1.455a3.865,3.865,0,0,0,0-.54,1.23,1.23,0,0,1-.03-.265,1.06,1.06,0,0,0-.04-.29,1.108,1.108,0,0,0,0-.315c-.03-.105,0-.21-.05-.32s0-.17-.04-.265a1.215,1.215,0,0,1-.045-.28,3.435,3.435,0,0,1-.085-.5c-.1-.245-.115-.5-.195-.765s-.125-.455-.195-.68c-.1-.32-.21-.635-.325-.95s-.235-.58-.345-.875a7.794,7.794,0,0,0-.365-.775c-.14-.27-.29-.535-.44-.8s-.28-.475-.425-.7-.325-.5-.5-.735-.27-.355-.41-.535c-.055-.075-.11-.155-.17-.23l-.31-.375-.15.095c-.24.15-.5.3-.725.44a3.5,3.5,0,0,1-.535.25c-.19.075-.365.18-.555.25s-.5.215-.745.29a14.4,14.4,0,0,1-1.64.5,1,1,0,0,0-.18.08c.07.24.13.465.185.685s.075.37.135.55a7.229,7.229,0,0,1,.185.805,1.55,1.55,0,0,1,.085.5c.08.145.045.325.12.47,0,.22.08.43.085.65a1.055,1.055,0,0,0,.045.28,1.25,1.25,0,0,1,.03.19,1.642,1.642,0,0,0,.04.2,2.029,2.029,0,0,0,.04.5v.04a.26.26,0,0,1,.04.2c0,.085.035.15.04.225a2.77,2.77,0,0,0,.035.4c.03.17,0,.35.04.525a3.721,3.721,0,0,0,.045.5c-.03.395.055.79.04,1.185v.33ZM5.445,7.338a1.32,1.32,0,0,1-.155.2c-.125.135-.225.28-.34.42-.23.29-.445.59-.65.895s-.365.555-.535.845c-.075.125-.14.26-.215.39s-.17.265-.24.4-.13.28-.195.42q-.225.475-.435.96c-.1.23-.185.46-.27.69-.06.155-.1.32-.165.475s-.1.315-.155.475-.11.425-.165.635-.06.285-.095.42c-.06.22-.09.445-.145.665a1.125,1.125,0,0,0-.04.365c-.065.055,0,.135-.045.2a.88.88,0,0,0-.035.225c0,.07-.035.135-.04.2a3.078,3.078,0,0,1-.04.6v.06c-.07.1,0,.215-.035.325a1.012,1.012,0,0,0,0,.325H8.78a5.74,5.74,0,0,1,.045-.93,8.13,8.13,0,0,1,.045-.925,1.04,1.04,0,0,1,.03-.35,1.07,1.07,0,0,0,0-.255c0-.085.03-.165.035-.245,0-.21.03-.42.045-.625v-.04a.23.23,0,0,0,.035-.2.815.815,0,0,1,.045-.225c0-.155.025-.31.04-.465v-.04s.03-.12.04-.185.03-.12.035-.185a1.88,1.88,0,0,1,.05-.38c.04-.09,0-.18.04-.265a1.72,1.72,0,0,0,.1-.5,3.44,3.44,0,0,0,.09-.545,6.78,6.78,0,0,0,.195-.76c.075-.275.13-.55.2-.82.035-.125.07-.245.115-.385L9.75,9.138c-.06,0-.145,0-.18-.045s-.14,0-.2-.06-.115,0-.18-.05a2.445,2.445,0,0,0-.425-.125c-.045-.085-.135,0-.195-.065a.3.3,0,0,0-.215-.06c-.17-.125-.395-.11-.565-.235a7.815,7.815,0,0,1-1.08-.45,8.645,8.645,0,0,1-.945-.5A2.66,2.66,0,0,1,5.445,7.338ZM26.32,19H19v7.32a1.265,1.265,0,0,0,.21.05c.05,0,.09-.025.15,0a.71.71,0,0,0,.18,0,6.608,6.608,0,0,1,.765.03c.265.03.5,0,.785.045a6.685,6.685,0,0,0,.725.045h.04a.711.711,0,0,1,.245.04l.265.04.545.04h0c.05.055.12.03.18.04l.2.04a.94.94,0,0,1,.265.035.541.541,0,0,1,.265.045,4.466,4.466,0,0,1,.57.08.936.936,0,0,1,.16.04,1.105,1.105,0,0,1,.17.03,1.84,1.84,0,0,0,.365.055c.03-.035.055-.055.055-.08a1.335,1.335,0,0,1,.08-.285,1.181,1.181,0,0,1,.08-.31c.065-.215.115-.435.16-.655.03-.14.07-.28.095-.425s.075-.29.1-.435a2.14,2.14,0,0,0,.09-.5c.065-.08,0-.18.045-.265a1.65,1.65,0,0,0,.075-.31,2.505,2.505,0,0,1,.04-.325v-.075a.511.511,0,0,1,.045-.225.445.445,0,0,0,.035-.225v-.08c0-.015.025-.125.035-.185a1.5,1.5,0,0,0,.04-.2c0-.185.025-.375.04-.565v-.04c0-.01.03-.16.04-.245a2,2,0,0,0,.04-.24,4.035,4.035,0,0,1,.035-.5c.035-.18,0-.375.04-.565.04-.27,0-.55.04-.825a2,2,0,0,0,.02-.41Zm-8.79-8.785a2.37,2.37,0,0,0-.245-.05,10.165,10.165,0,0,1-1.17-.04c-.2-.03-.415,0-.625-.035s-.32,0-.5-.04-.28,0-.425-.04-.255,0-.385-.04-.255,0-.385-.045-.2,0-.305-.035-.215,0-.32-.045-.16,0-.25-.035-.18,0-.26-.05a5.1,5.1,0,0,1-.61-.08.625.625,0,0,1-.16-.04.715.715,0,0,1-.17-.03,1.42,1.42,0,0,0-.315-.05c-.085.055-.045.13-.07.175a2.6,2.6,0,0,0-.13.425c-.05.15-.075.305-.11.46a4.238,4.238,0,0,1-.12.45,2.43,2.43,0,0,1-.115.455c.025.085-.045.16-.04.245s-.055.14-.045.22a.59.59,0,0,1-.04.245c-.04.09,0,.185-.04.265a3.9,3.9,0,0,0-.11.535c-.025.075-.025.16-.045.24a2.4,2.4,0,0,1-.035.265c-.03.09,0,.19-.04.285a2.6,2.6,0,0,0-.04.285,4.8,4.8,0,0,0-.05.545c0,.025,0,.06,0,.08a.345.345,0,0,0-.035.245c0,.09-.04.16-.045.24a1.865,1.865,0,0,1-.035.47,1.915,1.915,0,0,0,0,.34c0,.105-.03.215-.04.325a4.78,4.78,0,0,1-.03.7,2.145,2.145,0,0,0,0,.5h7.34Zm0,8.78H10.19a4.465,4.465,0,0,0,.035.635,3,3,0,0,1,0,.5c0,.165.035.325.035.5a6.225,6.225,0,0,1,.04.75v.035a.934.934,0,0,0,.035.265,1.7,1.7,0,0,1,.04.265,3.135,3.135,0,0,1,.04.5h0c.065.075,0,.165.04.245a.68.68,0,0,1,.04.245L10.5,23a.456.456,0,0,0,.04.19.341.341,0,0,1,.035.18,1.5,1.5,0,0,0,.05.38c.05.1,0,.2.06.3a1.3,1.3,0,0,1,.055.32.68.68,0,0,1,.04.245c.09.06,0,.165.07.25s0,.195.055.275a1.5,1.5,0,0,1,.045.245c.035.13.08.26.11.4.05.24.13.47.18.7.03.125.08.24.1.36a.615.615,0,0,0,.045.115h.175a.5.5,0,0,0,.275-.07,1.11,1.11,0,0,1,.3-.045.9.9,0,0,1,.305-.04c.065-.075.155,0,.22-.045a.5.5,0,0,1,.225-.035h.08c.015,0,.14-.025.2-.035a1,1,0,0,1,.2-.04,2.235,2.235,0,0,1,.445-.04c.145-.09.315,0,.47-.075s.265,0,.4-.04.305,0,.465-.04.34,0,.5-.045c.32.025.635-.05.955-.04h.3a.745.745,0,0,0,.31-.03.8.8,0,0,1,.29,0Zm8.79-1.455v-.355c0-.115-.03-.23-.04-.345a2.42,2.42,0,0,0-.04-.685c0-.265-.03-.525-.035-.785a2.865,2.865,0,0,1-.045-.545.375.375,0,0,1-.035-.265,1.545,1.545,0,0,0-.045-.265,1.829,1.829,0,0,0-.04-.465.06.06,0,0,0,0-.04,2.035,2.035,0,0,1-.075-.43A2.215,2.215,0,0,0,25.92,13a.369.369,0,0,0-.04-.2,1.625,1.625,0,0,1-.04-.225,1.41,1.41,0,0,0-.045-.26,1.254,1.254,0,0,0-.07-.33c-.03-.1-.04-.235-.08-.35s0-.19-.045-.26,0-.2-.075-.27a1.5,1.5,0,0,0-.085-.39c-.04-.2-.115-.4-.155-.6a2.71,2.71,0,0,1-.125-.5.626.626,0,0,0-.06-.06.535.535,0,0,0-.175.03c-.25.04-.5.08-.75.13a1.913,1.913,0,0,0-.345.045c-.2.06-.41.055-.615.1a2.79,2.79,0,0,1-.5.045h-.04c-.01,0-.16.03-.245.04s-.16.03-.24.035a1.785,1.785,0,0,0-.37.035c-.125.035-.32,0-.5.045s-.325,0-.5.035a1.045,1.045,0,0,1-.375,0c-.135,0-.255.055-.385.045s-.35,0-.5,0-.385.05-.57.05v7.345ZM11.85,8.2l.175.04a1.415,1.415,0,0,0,.2.04.915.915,0,0,1,.23.035c.065.03.145,0,.225.04a1,1,0,0,0,.3.045l.325.04h.075c.01,0,.125.025.19.04a1.4,1.4,0,0,0,.2.035l.57.045h.035c.005,0,.165.025.245.04a2.064,2.064,0,0,0,.245.035,4.445,4.445,0,0,1,.445.035,3.455,3.455,0,0,1,.5.05c.5-.025.95.065,1.43.04h.28V1.5h-.06l-.535.165c-.17.055-.325.15-.5.2-.085.1-.22.12-.32.195s-.22.13-.32.2c-.195.145-.385.295-.575.45a2.83,2.83,0,0,1-.215.21,1.8,1.8,0,0,0-.19.2,5.145,5.145,0,0,0-.645.715c-.135.2-.3.37-.435.565a14.2,14.2,0,0,0-.875,1.5c-.19.375-.39.745-.545,1.14-.045.11-.115.2-.15.32C12.08,7.628,11.93,7.888,11.85,8.2Zm12.835,0s-.035-.025-.035-.035a4.275,4.275,0,0,0-.22-.615c-.11-.3-.255-.59-.4-.88a15.949,15.949,0,0,0-.755-1.45c-.18-.29-.36-.575-.545-.86-.09-.135-.2-.25-.3-.38s-.28-.335-.405-.5a1.4,1.4,0,0,0-.17-.175,1.255,1.255,0,0,1-.18-.185c-.04-.07-.11-.1-.155-.15a4.925,4.925,0,0,0-.9-.74,5.06,5.06,0,0,0-1-.525A4.07,4.07,0,0,0,19,1.5c-.03.8,0,7.09,0,7.27.37-.035.74,0,1.11-.04.26-.04.535,0,.8-.04a6.5,6.5,0,0,1,.765-.045h.04c.01,0,.16-.025.245-.035a2,2,0,0,1,.24-.04c.175,0,.35-.03.525-.04h.04c.06-.065.14-.025.2-.035a1.77,1.77,0,0,1,.225-.04,3.945,3.945,0,0,0,.425-.045c.175-.055.355-.07.535-.11Zm-7.16,26.84v-7.26h-.1a7.826,7.826,0,0,0-1.025.03,5.33,5.33,0,0,0-.745.05,4.916,4.916,0,0,0-.6.04.55.55,0,0,0-.24,0,.8.8,0,0,1-.265.035c-.09,0-.175.03-.265.035-.165,0-.335.03-.5.045h0c-.065.065-.145.03-.225.04a1.675,1.675,0,0,1-.22.035c-.13,0-.255.075-.385.045a5.57,5.57,0,0,1-.575.115,3.371,3.371,0,0,1-.5.085c.07.21.155.4.225.595a10.764,10.764,0,0,0,.44,1c.2.42.4.84.64,1.24l.31.5c.13.2.255.4.4.595a7.307,7.307,0,0,0,1.725,1.87,6.345,6.345,0,0,0,.7.45,5,5,0,0,0,.62.29,2.865,2.865,0,0,0,.6.165Zm1.46,0a.665.665,0,0,0,.19-.045,1,1,0,0,1,.2-.05,5.73,5.73,0,0,0,1.095-.5,8.1,8.1,0,0,0,.785-.575,1.5,1.5,0,0,0,.155-.155c.05-.05.09-.12.145-.135s.09-.1.135-.15a5.28,5.28,0,0,0,.67-.745c.14-.185.295-.355.425-.545.265-.395.5-.8.735-1.22a15.562,15.562,0,0,0,.695-1.415c.045-.1.1-.2.135-.305.1-.285.22-.56.32-.855a2.228,2.228,0,0,1-.5-.085,1.635,1.635,0,0,1-.28-.045c-.08-.035-.16,0-.225-.035a.445.445,0,0,0-.225-.035h-.08c-.015,0-.11-.025-.165-.035a1,1,0,0,0-.165-.04l-.5-.04h-.04a.21.21,0,0,0-.2-.035c-.085,0-.15-.045-.225-.04a6.283,6.283,0,0,0-.75-.04H21.26c-.095-.065-.2,0-.305-.04a.91.91,0,0,0-.305-.035,4.859,4.859,0,0,1-.71-.035,8.76,8.76,0,0,0-.96,0ZM10.415,7.883a1.615,1.615,0,0,1,.07-.235c.14-.295.245-.61.375-.91s.22-.535.34-.8a10.94,10.94,0,0,1,.5-1c.175-.29.34-.585.5-.87a14.315,14.315,0,0,1,1-1.385c.165-.2.355-.39.535-.58l.075-.075a15.885,15.885,0,0,0-3.935,1.6,17.5,17.5,0,0,0-3.5,2.65c.175.1.345.21.5.3a12.325,12.325,0,0,0,1.285.58c.235.09.475.185.71.265.365.125.735.235,1.1.345ZM30.09,6.293c-.27-.28-.565-.53-.855-.785s-.445-.375-.675-.55-.53-.4-.8-.595c-.17-.12-.345-.23-.5-.335s-.465-.29-.71-.42l-.55-.3a2.915,2.915,0,0,0-.5-.24c-.175-.06-.325-.175-.5-.225-.09,0-.17-.085-.27-.115a1.455,1.455,0,0,1-.275-.115c-.325-.135-.66-.24-1-.36a5.875,5.875,0,0,1-.7-.25h-.08c.145.165.28.325.425.5s.3.34.44.5a9,9,0,0,1,.595.835c.115.2.25.39.38.585a5.025,5.025,0,0,1,.355.615c.17.34.35.68.5,1.035s.275.63.415.95.21.555.315.83a14.375,14.375,0,0,0,3.99-1.56ZM13.84,34.5c-.11-.115-.235-.22-.335-.345-.185-.23-.39-.45-.57-.685-.1-.13-.2-.26-.3-.4-.21-.32-.44-.625-.625-.96-.135-.24-.29-.47-.415-.71-.185-.365-.37-.73-.525-1.1a2.315,2.315,0,0,1-.12-.215c-.075-.275-.22-.5-.315-.79l-.22-.62a13.835,13.835,0,0,0-3.965,1.61A16.6,16.6,0,0,0,13.84,34.5Zm8.81,0a.31.31,0,0,0,.1,0,3.815,3.815,0,0,1,.425-.13c.39-.12.78-.25,1.155-.4a10.2,10.2,0,0,0,1.07-.47c.18-.1.375-.17.55-.265l.59-.325c.265-.145.5-.305.77-.465A7.911,7.911,0,0,0,28,32c.17-.125.345-.235.5-.365l.5-.4a8.4,8.4,0,0,0,.63-.56.221.221,0,0,1,.06-.055c.15-.07.235-.22.365-.325-.19-.115-.37-.235-.555-.335s-.47-.25-.715-.355-.5-.21-.755-.315a1.97,1.97,0,0,1-.345-.135c-.115.035-.19-.1-.305-.08a.715.715,0,0,0-.315-.105,5.651,5.651,0,0,0-.755-.215.867.867,0,0,1-.22-.07,1.165,1.165,0,0,1-.055.14c-.065.14-.085.295-.16.435a4.6,4.6,0,0,1-.24.56,5,5,0,0,1-.39.905c-.135.3-.295.595-.455.89s-.285.5-.44.76-.325.5-.5.755-.4.5-.61.77c-.135.165-.29.32-.435.5Z" transform="translate(-35.871 -0.006)" fill="#fff"/>
    </g>
  </g>
</svg>
